<svg width="170" height="62" viewBox="0 0 170 62" fill="none" xmlns="http://www.w3.org/2000/svg">
<path d="M9.23071 29.5793C9.32032 29.3956 9.45698 29.2478 9.64068 29.1358C9.82886 29.0193 10.0372 28.961 10.2657 28.961C10.3508 28.961 10.4382 28.97 10.5278 28.9879C10.6219 29.0058 10.7115 29.0417 10.7967 29.0954C10.8863 29.1447 10.9669 29.2119 11.0386 29.2971C11.1148 29.3822 11.1797 29.492 11.2335 29.6264C11.341 29.4113 11.4867 29.2478 11.6704 29.1358C11.8586 29.0193 12.0803 28.961 12.3357 28.961C12.7345 28.961 13.0325 29.0797 13.2296 29.3172C13.4312 29.5547 13.532 29.8683 13.532 30.2581V32.187H13.075V30.4463C13.075 30.1148 13.0123 29.8482 12.8868 29.6465C12.7659 29.4449 12.5575 29.3441 12.2618 29.3441C12.096 29.3441 11.9549 29.3777 11.8384 29.4449C11.7264 29.5121 11.6345 29.6017 11.5628 29.7137C11.4956 29.8213 11.4463 29.9445 11.415 30.0834C11.3836 30.2223 11.3679 30.3657 11.3679 30.5135V32.187H10.9109V30.3522C10.9109 30.1999 10.8997 30.061 10.8773 29.9355C10.8549 29.8101 10.8146 29.7048 10.7563 29.6197C10.7026 29.53 10.6264 29.4628 10.5278 29.418C10.4293 29.3687 10.3038 29.3441 10.1515 29.3441C10.0439 29.3441 9.93415 29.3687 9.82214 29.418C9.71461 29.4673 9.61603 29.5435 9.52642 29.6465C9.44129 29.7451 9.37184 29.8728 9.31808 30.0296C9.26431 30.182 9.23743 30.3634 9.23743 30.574V32.187H8.78041V29.7339C8.78041 29.6488 8.77817 29.539 8.77369 29.4046C8.76921 29.2702 8.76249 29.1492 8.75353 29.0417H9.19038C9.19934 29.1268 9.20606 29.2209 9.21054 29.3239C9.21503 29.427 9.21727 29.5121 9.21727 29.5793H9.23071ZM17.113 30.3724C17.0995 30.0767 17.0032 29.8325 16.824 29.6398C16.6492 29.4427 16.3983 29.3441 16.0712 29.3441C15.9189 29.3441 15.7778 29.3732 15.6478 29.4315C15.5179 29.4852 15.4036 29.5614 15.3051 29.66C15.2065 29.7541 15.1281 29.8638 15.0698 29.9893C15.0116 30.1103 14.978 30.238 14.969 30.3724H17.113ZM17.5767 30.5202C17.5767 30.5516 17.5767 30.5852 17.5767 30.6211C17.5767 30.6569 17.5745 30.695 17.57 30.7353H14.9623C14.9668 30.8921 14.9982 31.04 15.0564 31.1789C15.1147 31.3178 15.1953 31.4388 15.2984 31.5418C15.4014 31.6449 15.5224 31.7278 15.6613 31.7905C15.8002 31.8487 15.9503 31.8779 16.1116 31.8779C16.349 31.8779 16.5529 31.8241 16.7232 31.7166C16.8979 31.6045 17.0301 31.4768 17.1197 31.3335L17.4625 31.6023C17.2743 31.8398 17.0659 32.01 16.8374 32.1131C16.6134 32.2161 16.3714 32.2677 16.1116 32.2677C15.8786 32.2677 15.6613 32.2273 15.4597 32.1467C15.2625 32.0616 15.0922 31.9451 14.9489 31.7972C14.8055 31.6493 14.6912 31.4746 14.6061 31.273C14.5255 31.0714 14.4851 30.8518 14.4851 30.6143C14.4851 30.3769 14.5255 30.1573 14.6061 29.9557C14.6868 29.7541 14.7988 29.5793 14.9422 29.4315C15.0855 29.2836 15.2535 29.1694 15.4462 29.0887C15.6389 29.0036 15.8472 28.961 16.0712 28.961C16.3177 28.961 16.535 29.0036 16.7232 29.0887C16.9114 29.1694 17.0682 29.2814 17.1936 29.4248C17.3191 29.5636 17.4132 29.7272 17.4759 29.9154C17.5431 30.1036 17.5767 30.3052 17.5767 30.5202ZM18.9697 29.0417C18.9787 29.1268 18.9854 29.2209 18.9899 29.3239C18.9944 29.427 18.9966 29.5121 18.9966 29.5793H19.01C19.0996 29.3956 19.2453 29.2478 19.4469 29.1358C19.6485 29.0193 19.8613 28.961 20.0854 28.961C20.4841 28.961 20.7821 29.0797 20.9792 29.3172C21.1809 29.5547 21.2817 29.8683 21.2817 30.2581V32.187H20.8247V30.4463C20.8247 30.2805 20.8112 30.1304 20.7843 29.996C20.7575 29.8616 20.7104 29.7474 20.6432 29.6533C20.5805 29.5547 20.4931 29.4785 20.3811 29.4248C20.2736 29.371 20.1369 29.3441 19.9711 29.3441C19.8501 29.3441 19.7314 29.3687 19.6149 29.418C19.5029 29.4673 19.4021 29.5435 19.3125 29.6465C19.2229 29.7451 19.1512 29.8728 19.0974 30.0296C19.0436 30.182 19.0168 30.3634 19.0168 30.574V32.187H18.5597V29.7339C18.5597 29.6488 18.5575 29.539 18.553 29.4046C18.5485 29.2702 18.5418 29.1492 18.5329 29.0417H18.9697ZM26.1278 30.1573C26.1278 29.884 26.0561 29.6801 25.9127 29.5457C25.7693 29.4113 25.561 29.3441 25.2877 29.3441C25.0995 29.3441 24.9247 29.3777 24.7634 29.4449C24.6021 29.5121 24.4655 29.6017 24.3535 29.7137L24.0981 29.4113C24.228 29.2814 24.3983 29.1738 24.6089 29.0887C24.8239 29.0036 25.0659 28.961 25.3347 28.961C25.505 28.961 25.664 28.9857 25.8119 29.0349C25.9597 29.0797 26.0897 29.1492 26.2017 29.2433C26.3137 29.3374 26.4011 29.4561 26.4638 29.5995C26.5265 29.7429 26.5579 29.9109 26.5579 30.1036V31.4813C26.5579 31.6023 26.5624 31.7278 26.5713 31.8577C26.5803 31.9876 26.5937 32.0974 26.6117 32.187H26.2017C26.1882 32.1108 26.177 32.028 26.1681 31.9383C26.1591 31.8487 26.1546 31.7614 26.1546 31.6762H26.1412C25.9978 31.8868 25.8343 32.0392 25.6506 32.1332C25.4714 32.2229 25.2541 32.2677 24.9987 32.2677C24.8777 32.2677 24.7522 32.2497 24.6223 32.2139C24.4968 32.1825 24.3803 32.1288 24.2728 32.0526C24.1698 31.9764 24.0824 31.8779 24.0107 31.7569C23.9435 31.6359 23.9099 31.488 23.9099 31.3133C23.9099 31.0714 23.9704 30.8809 24.0914 30.742C24.2168 30.5987 24.3826 30.4934 24.5887 30.4262C24.7948 30.3545 25.03 30.3097 25.2944 30.2917C25.5632 30.2693 25.841 30.2581 26.1278 30.2581V30.1573ZM25.9933 30.6143C25.8052 30.6143 25.6147 30.6233 25.4221 30.6412C25.2339 30.6547 25.0614 30.686 24.9046 30.7353C24.7522 30.7801 24.6268 30.8473 24.5282 30.9369C24.4296 31.0265 24.3803 31.1453 24.3803 31.2931C24.3803 31.4052 24.4005 31.4992 24.4408 31.5754C24.4856 31.6516 24.5439 31.7143 24.6156 31.7636C24.6873 31.8084 24.7657 31.842 24.8508 31.8644C24.9404 31.8823 25.03 31.8913 25.1196 31.8913C25.2809 31.8913 25.4243 31.8644 25.5498 31.8106C25.6752 31.7524 25.7805 31.6762 25.8656 31.5821C25.9508 31.4836 26.0157 31.3716 26.0606 31.2461C26.1054 31.1206 26.1278 30.9885 26.1278 30.8496V30.6143H25.9933ZM30.0002 29.7608C29.924 29.6398 29.812 29.5412 29.6641 29.4651C29.5207 29.3844 29.3639 29.3441 29.1937 29.3441C29.01 29.3441 28.8442 29.3777 28.6963 29.4449C28.5485 29.5076 28.4208 29.5973 28.3132 29.7137C28.2102 29.8258 28.1295 29.9602 28.0713 30.117C28.0175 30.2693 27.9906 30.4351 27.9906 30.6143C27.9906 30.7936 28.0175 30.9593 28.0713 31.1117C28.1295 31.264 28.2102 31.3984 28.3132 31.5149C28.4163 31.6269 28.5417 31.7166 28.6896 31.7838C28.8375 31.8465 29.0032 31.8779 29.1869 31.8779C29.3886 31.8779 29.5588 31.8398 29.6977 31.7636C29.8366 31.6874 29.9509 31.5889 30.0405 31.4679L30.3833 31.7233C30.2488 31.8891 30.0831 32.0212 29.8859 32.1198C29.6932 32.2184 29.4603 32.2677 29.1869 32.2677C28.9316 32.2677 28.7008 32.2273 28.4947 32.1467C28.2886 32.0616 28.1116 31.9451 27.9638 31.7972C27.8204 31.6493 27.7084 31.4746 27.6277 31.273C27.5471 31.0714 27.5067 30.8518 27.5067 30.6143C27.5067 30.3769 27.5471 30.1573 27.6277 29.9557C27.7084 29.7541 27.8204 29.5793 27.9638 29.4315C28.1116 29.2836 28.2886 29.1694 28.4947 29.0887C28.7008 29.0036 28.9316 28.961 29.1869 28.961C29.3975 28.961 29.6104 29.0081 29.8254 29.1022C30.045 29.1918 30.222 29.3262 30.3564 29.5054L30.0002 29.7608ZM33.3606 29.7608C33.2844 29.6398 33.1724 29.5412 33.0245 29.4651C32.8812 29.3844 32.7243 29.3441 32.5541 29.3441C32.3704 29.3441 32.2046 29.3777 32.0567 29.4449C31.9089 29.5076 31.7812 29.5973 31.6737 29.7137C31.5706 29.8258 31.4899 29.9602 31.4317 30.117C31.3779 30.2693 31.3511 30.4351 31.3511 30.6143C31.3511 30.7936 31.3779 30.9593 31.4317 31.1117C31.4899 31.264 31.5706 31.3984 31.6737 31.5149C31.7767 31.6269 31.9022 31.7166 32.05 31.7838C32.1979 31.8465 32.3637 31.8779 32.5474 31.8779C32.749 31.8779 32.9192 31.8398 33.0581 31.7636C33.197 31.6874 33.3113 31.5889 33.4009 31.4679L33.7437 31.7233C33.6092 31.8891 33.4435 32.0212 33.2463 32.1198C33.0537 32.2184 32.8207 32.2677 32.5474 32.2677C32.292 32.2677 32.0612 32.2273 31.8551 32.1467C31.649 32.0616 31.472 31.9451 31.3242 31.7972C31.1808 31.6493 31.0688 31.4746 30.9881 31.273C30.9075 31.0714 30.8672 30.8518 30.8672 30.6143C30.8672 30.3769 30.9075 30.1573 30.9881 29.9557C31.0688 29.7541 31.1808 29.5793 31.3242 29.4315C31.472 29.2836 31.649 29.1694 31.8551 29.0887C32.0612 29.0036 32.292 28.961 32.5474 28.961C32.7579 28.961 32.9708 29.0081 33.1858 29.1022C33.4054 29.1918 33.5824 29.3262 33.7168 29.5054L33.3606 29.7608ZM37.5813 30.6143C37.5813 30.8518 37.5387 31.0714 37.4536 31.273C37.3729 31.4746 37.2587 31.6493 37.1108 31.7972C36.9629 31.9451 36.786 32.0616 36.5799 32.1467C36.3738 32.2273 36.1475 32.2677 35.9011 32.2677C35.6591 32.2677 35.4351 32.2273 35.229 32.1467C35.0229 32.0616 34.8459 31.9451 34.698 31.7972C34.5502 31.6493 34.4337 31.4746 34.3485 31.273C34.2679 31.0714 34.2276 30.8518 34.2276 30.6143C34.2276 30.3769 34.2679 30.1573 34.3485 29.9557C34.4337 29.7541 34.5502 29.5793 34.698 29.4315C34.8459 29.2836 35.0229 29.1694 35.229 29.0887C35.4351 29.0036 35.6591 28.961 35.9011 28.961C36.1475 28.961 36.3738 29.0036 36.5799 29.0887C36.786 29.1694 36.9629 29.2836 37.1108 29.4315C37.2587 29.5793 37.3729 29.7541 37.4536 29.9557C37.5387 30.1573 37.5813 30.3769 37.5813 30.6143ZM37.0974 30.6143C37.0974 30.4396 37.0682 30.2761 37.01 30.1237C36.9562 29.9669 36.8778 29.8325 36.7748 29.7205C36.6717 29.604 36.5463 29.5121 36.3984 29.4449C36.2505 29.3777 36.0848 29.3441 35.9011 29.3441C35.7174 29.3441 35.5516 29.3777 35.4037 29.4449C35.2603 29.5121 35.1371 29.604 35.0341 29.7205C34.931 29.8325 34.8504 29.9669 34.7921 30.1237C34.7383 30.2761 34.7115 30.4396 34.7115 30.6143C34.7115 30.7891 34.7383 30.9549 34.7921 31.1117C34.8504 31.264 34.931 31.3984 35.0341 31.5149C35.1371 31.6269 35.2603 31.7166 35.4037 31.7838C35.5516 31.8465 35.7174 31.8779 35.9011 31.8779C36.0848 31.8779 36.2505 31.8465 36.3984 31.7838C36.5463 31.7166 36.6717 31.6269 36.7748 31.5149C36.8778 31.3984 36.9562 31.264 37.01 31.1117C37.0682 30.9549 37.0974 30.7891 37.0974 30.6143ZM38.5647 29.7339C38.5647 29.6488 38.5625 29.539 38.558 29.4046C38.5535 29.2702 38.5468 29.1492 38.5378 29.0417H38.9747C38.9836 29.1268 38.9904 29.2209 38.9948 29.3239C38.9993 29.427 39.0016 29.5121 39.0016 29.5793H39.015C39.1046 29.3956 39.239 29.2478 39.4183 29.1358C39.5975 29.0193 39.7991 28.961 40.0231 28.961C40.0814 28.961 40.1329 28.9633 40.1777 28.9677C40.227 28.9722 40.2763 28.9812 40.3256 28.9946L40.2651 29.4248C40.2382 29.4158 40.1934 29.4068 40.1307 29.3979C40.0679 29.3889 40.0052 29.3844 39.9425 29.3844C39.8215 29.3844 39.705 29.4068 39.593 29.4516C39.481 29.4964 39.3824 29.5681 39.2973 29.6667C39.2166 29.7608 39.1494 29.884 39.0957 30.0363C39.0464 30.1842 39.0217 30.3634 39.0217 30.574V32.187H38.5647V29.7339ZM43.4559 31.6561C43.3215 31.8577 43.1468 32.01 42.9317 32.1131C42.7167 32.2161 42.4949 32.2677 42.2664 32.2677C42.0199 32.2677 41.7959 32.2251 41.5943 32.14C41.3971 32.0548 41.2269 31.9383 41.0835 31.7905C40.9446 31.6426 40.8348 31.4679 40.7542 31.2663C40.678 31.0646 40.6399 30.8473 40.6399 30.6143C40.6399 30.3813 40.678 30.164 40.7542 29.9624C40.8348 29.7608 40.9446 29.5861 41.0835 29.4382C41.2269 29.2903 41.3971 29.1738 41.5943 29.0887C41.7959 29.0036 42.0199 28.961 42.2664 28.961C42.4949 28.961 42.7167 29.0148 42.9317 29.1223C43.1468 29.2254 43.3215 29.3799 43.4559 29.5861H43.4694V27.1061H43.9264V32.187H43.4694V31.6561H43.4559ZM41.1238 30.6143C41.1238 30.7891 41.1507 30.9549 41.2045 31.1117C41.2582 31.264 41.3344 31.3984 41.433 31.5149C41.536 31.6269 41.6615 31.7166 41.8093 31.7838C41.9572 31.8465 42.1252 31.8779 42.3134 31.8779C42.4881 31.8779 42.6494 31.8465 42.7973 31.7838C42.9452 31.7166 43.0729 31.6269 43.1804 31.5149C43.2879 31.4029 43.3708 31.2707 43.4291 31.1184C43.4918 30.9616 43.5232 30.7936 43.5232 30.6143C43.5232 30.4351 43.4918 30.2693 43.4291 30.117C43.3708 29.9602 43.2879 29.8258 43.1804 29.7137C43.0729 29.5973 42.9452 29.5076 42.7973 29.4449C42.6494 29.3777 42.4881 29.3441 42.3134 29.3441C42.1252 29.3441 41.9572 29.3777 41.8093 29.4449C41.6615 29.5121 41.536 29.604 41.433 29.7205C41.3344 29.8325 41.2582 29.9669 41.2045 30.1237C41.1507 30.2761 41.1238 30.4396 41.1238 30.6143ZM45.6114 32.187H45.1544V29.0417H45.6114V32.187ZM45.7055 27.8319C45.7055 27.926 45.6719 28.0044 45.6047 28.0671C45.5375 28.1254 45.4636 28.1545 45.3829 28.1545C45.3023 28.1545 45.2284 28.1254 45.1611 28.0671C45.0939 28.0044 45.0603 27.926 45.0603 27.8319C45.0603 27.7378 45.0939 27.6617 45.1611 27.6034C45.2284 27.5407 45.3023 27.5093 45.3829 27.5093C45.4636 27.5093 45.5375 27.5407 45.6047 27.6034C45.6719 27.6617 45.7055 27.7378 45.7055 27.8319ZM47.2379 29.0417C47.2468 29.1268 47.2536 29.2209 47.258 29.3239C47.2625 29.427 47.2648 29.5121 47.2648 29.5793H47.2782C47.3678 29.3956 47.5134 29.2478 47.7151 29.1358C47.9167 29.0193 48.1295 28.961 48.3535 28.961C48.7523 28.961 49.0503 29.0797 49.2474 29.3172C49.449 29.5547 49.5498 29.8683 49.5498 30.2581V32.187H49.0928V30.4463C49.0928 30.2805 49.0794 30.1304 49.0525 29.996C49.0256 29.8616 48.9786 29.7474 48.9114 29.6533C48.8486 29.5547 48.7613 29.4785 48.6493 29.4248C48.5417 29.371 48.4051 29.3441 48.2393 29.3441C48.1183 29.3441 47.9996 29.3687 47.8831 29.418C47.7711 29.4673 47.6703 29.5435 47.5806 29.6465C47.491 29.7451 47.4193 29.8728 47.3656 30.0296C47.3118 30.182 47.2849 30.3634 47.2849 30.574V32.187H46.8279V29.7339C46.8279 29.6488 46.8257 29.539 46.8212 29.4046C46.8167 29.2702 46.81 29.1492 46.801 29.0417H47.2379ZM50.9011 32.8188C51.0266 32.9801 51.1968 33.1167 51.4119 33.2287C51.6314 33.3408 51.8622 33.3968 52.1041 33.3968C52.3282 33.3968 52.5186 33.3632 52.6754 33.2959C52.8322 33.2332 52.9577 33.1458 53.0518 33.0338C53.1503 32.9218 53.222 32.7896 53.2668 32.6373C53.3116 32.4894 53.334 32.3304 53.334 32.1601V31.5687H53.3206C53.1996 31.7658 53.0271 31.9182 52.8031 32.0257C52.5835 32.1332 52.3595 32.187 52.131 32.187C51.8846 32.187 51.6606 32.1467 51.4589 32.066C51.2618 31.9854 51.0915 31.8756 50.9481 31.7367C50.8092 31.5933 50.6995 31.4231 50.6188 31.2259C50.5427 31.0288 50.5046 30.816 50.5046 30.5875C50.5046 30.3634 50.5427 30.1528 50.6188 29.9557C50.6995 29.7586 50.8092 29.5861 50.9481 29.4382C51.0915 29.2903 51.2618 29.1738 51.4589 29.0887C51.6606 29.0036 51.8846 28.961 52.131 28.961C52.3595 28.961 52.5835 29.0148 52.8031 29.1223C53.0226 29.2298 53.1951 29.3844 53.3206 29.5861H53.334V29.0417H53.7911V32.1601C53.7911 32.3304 53.7664 32.5119 53.7171 32.7045C53.6723 32.8972 53.585 33.0742 53.455 33.2355C53.3296 33.3968 53.1571 33.5312 52.9375 33.6387C52.718 33.7462 52.4334 33.8 52.084 33.8C51.7927 33.8 51.5149 33.744 51.2506 33.632C50.9862 33.52 50.76 33.3654 50.5718 33.1683L50.9011 32.8188ZM50.9885 30.574C50.9885 30.7398 51.0154 30.8966 51.0691 31.0445C51.1229 31.1923 51.1991 31.3223 51.2976 31.4343C51.4007 31.5463 51.5261 31.6359 51.674 31.7031C51.8219 31.7658 51.9899 31.7972 52.1781 31.7972C52.3528 31.7972 52.5141 31.7681 52.662 31.7098C52.8098 31.6516 52.9375 31.5687 53.045 31.4612C53.1526 31.3536 53.2355 31.2259 53.2937 31.0781C53.3564 30.9257 53.3878 30.7577 53.3878 30.574C53.3878 30.4082 53.3564 30.2514 53.2937 30.1036C53.2355 29.9557 53.1526 29.8258 53.045 29.7137C52.9375 29.6017 52.8098 29.5121 52.662 29.4449C52.5141 29.3777 52.3528 29.3441 52.1781 29.3441C51.9899 29.3441 51.8219 29.3777 51.674 29.4449C51.5261 29.5121 51.4007 29.6017 51.2976 29.7137C51.1991 29.8258 51.1229 29.9557 51.0691 30.1036C51.0154 30.2514 50.9885 30.4082 50.9885 30.574ZM58.0778 29.4248H57.1907V31.2595C57.1907 31.376 57.2019 31.4724 57.2243 31.5485C57.2467 31.6247 57.2781 31.6852 57.3184 31.73C57.3632 31.7703 57.4147 31.7994 57.473 31.8174C57.5312 31.8308 57.5939 31.8375 57.6612 31.8375C57.7239 31.8375 57.7888 31.8286 57.8561 31.8106C57.9277 31.7927 57.995 31.7681 58.0577 31.7367L58.0778 32.1332C57.9972 32.1646 57.9121 32.187 57.8225 32.2005C57.7373 32.2184 57.6432 32.2273 57.5402 32.2273C57.455 32.2273 57.3654 32.2161 57.2713 32.1937C57.1773 32.1713 57.0899 32.1288 57.0092 32.066C56.9286 32.0033 56.8614 31.9182 56.8076 31.8106C56.7583 31.7031 56.7337 31.562 56.7337 31.3872V29.4248H56.0818V29.0417H56.7337V28.1545H57.1907V29.0417H58.0778V29.4248ZM61.918 30.6143C61.918 30.8518 61.8754 31.0714 61.7903 31.273C61.7097 31.4746 61.5954 31.6493 61.4476 31.7972C61.2997 31.9451 61.1227 32.0616 60.9166 32.1467C60.7105 32.2273 60.4842 32.2677 60.2378 32.2677C59.9959 32.2677 59.7718 32.2273 59.5657 32.1467C59.3596 32.0616 59.1826 31.9451 59.0348 31.7972C58.8869 31.6493 58.7704 31.4746 58.6853 31.273C58.6046 31.0714 58.5643 30.8518 58.5643 30.6143C58.5643 30.3769 58.6046 30.1573 58.6853 29.9557C58.7704 29.7541 58.8869 29.5793 59.0348 29.4315C59.1826 29.2836 59.3596 29.1694 59.5657 29.0887C59.7718 29.0036 59.9959 28.961 60.2378 28.961C60.4842 28.961 60.7105 29.0036 60.9166 29.0887C61.1227 29.1694 61.2997 29.2836 61.4476 29.4315C61.5954 29.5793 61.7097 29.7541 61.7903 29.9557C61.8754 30.1573 61.918 30.3769 61.918 30.6143ZM61.4341 30.6143C61.4341 30.4396 61.405 30.2761 61.3467 30.1237C61.293 29.9669 61.2146 29.8325 61.1115 29.7205C61.0085 29.604 60.883 29.5121 60.7351 29.4449C60.5873 29.3777 60.4215 29.3441 60.2378 29.3441C60.0541 29.3441 59.8883 29.3777 59.7405 29.4449C59.5971 29.5121 59.4739 29.604 59.3708 29.7205C59.2678 29.8325 59.1871 29.9669 59.1289 30.1237C59.0751 30.2761 59.0482 30.4396 59.0482 30.6143C59.0482 30.7891 59.0751 30.9549 59.1289 31.1117C59.1871 31.264 59.2678 31.3984 59.3708 31.5149C59.4739 31.6269 59.5971 31.7166 59.7405 31.7838C59.8883 31.8465 60.0541 31.8779 60.2378 31.8779C60.4215 31.8779 60.5873 31.8465 60.7351 31.7838C60.883 31.7166 61.0085 31.6269 61.1115 31.5149C61.2146 31.3984 61.293 31.264 61.3467 31.1117C61.405 30.9549 61.4341 30.7891 61.4341 30.6143ZM68.2176 28.2822C68.0518 28.1075 67.8547 27.9731 67.6262 27.879C67.3977 27.7804 67.1356 27.7311 66.8399 27.7311C66.5352 27.7311 66.2596 27.7871 66.0132 27.8991C65.7712 28.0111 65.5651 28.1635 65.3949 28.3561C65.2246 28.5443 65.0924 28.7639 64.9984 29.0148C64.9087 29.2657 64.8639 29.53 64.8639 29.8078C64.8639 30.0856 64.9087 30.35 64.9984 30.6009C65.0924 30.8518 65.2246 31.0714 65.3949 31.2595C65.5651 31.4477 65.7712 31.5978 66.0132 31.7098C66.2596 31.8218 66.5352 31.8779 66.8399 31.8779C67.1087 31.8779 67.3551 31.8487 67.5792 31.7905C67.8032 31.7322 67.9846 31.6583 68.1235 31.5687V30.1237H67.0146V29.7003H68.6074V31.8442C68.3476 32.0011 68.0675 32.1176 67.7673 32.1937C67.4671 32.2699 67.1557 32.308 66.8331 32.308C66.4747 32.308 66.1431 32.2453 65.8385 32.1198C65.5338 31.9943 65.2717 31.8218 65.0521 31.6023C64.8326 31.3783 64.6601 31.1139 64.5346 30.8092C64.4136 30.5046 64.3532 30.1708 64.3532 29.8078C64.3532 29.4449 64.4159 29.1111 64.5413 28.8064C64.6668 28.5018 64.8393 28.2396 65.0588 28.0201C65.2829 27.7961 65.545 27.6213 65.8452 27.4959C66.1499 27.3704 66.4792 27.3077 66.8331 27.3077C67.214 27.3077 67.5455 27.3637 67.8278 27.4757C68.1101 27.5877 68.352 27.7445 68.5537 27.9462L68.2176 28.2822ZM72.9444 30.6143C72.9444 30.8518 72.9018 31.0714 72.8167 31.273C72.736 31.4746 72.6218 31.6493 72.4739 31.7972C72.326 31.9451 72.1491 32.0616 71.943 32.1467C71.7369 32.2273 71.5106 32.2677 71.2642 32.2677C71.0222 32.2677 70.7982 32.2273 70.5921 32.1467C70.386 32.0616 70.209 31.9451 70.0611 31.7972C69.9133 31.6493 69.7968 31.4746 69.7116 31.273C69.631 31.0714 69.5907 30.8518 69.5907 30.6143C69.5907 30.3769 69.631 30.1573 69.7116 29.9557C69.7968 29.7541 69.9133 29.5793 70.0611 29.4315C70.209 29.2836 70.386 29.1694 70.5921 29.0887C70.7982 29.0036 71.0222 28.961 71.2642 28.961C71.5106 28.961 71.7369 29.0036 71.943 29.0887C72.1491 29.1694 72.326 29.2836 72.4739 29.4315C72.6218 29.5793 72.736 29.7541 72.8167 29.9557C72.9018 30.1573 72.9444 30.3769 72.9444 30.6143ZM72.4605 30.6143C72.4605 30.4396 72.4313 30.2761 72.3731 30.1237C72.3193 29.9669 72.2409 29.8325 72.1379 29.7205C72.0348 29.604 71.9094 29.5121 71.7615 29.4449C71.6136 29.3777 71.4479 29.3441 71.2642 29.3441C71.0805 29.3441 70.9147 29.3777 70.7668 29.4449C70.6234 29.5121 70.5002 29.604 70.3972 29.7205C70.2941 29.8325 70.2135 29.9669 70.1552 30.1237C70.1015 30.2761 70.0746 30.4396 70.0746 30.6143C70.0746 30.7891 70.1015 30.9549 70.1552 31.1117C70.2135 31.264 70.2941 31.3984 70.3972 31.5149C70.5002 31.6269 70.6234 31.7166 70.7668 31.7838C70.9147 31.8465 71.0805 31.8779 71.2642 31.8779C71.4479 31.8779 71.6136 31.8465 71.7615 31.7838C71.9094 31.7166 72.0348 31.6269 72.1379 31.5149C72.2409 31.3984 72.3193 31.264 72.3731 31.1117C72.4313 30.9549 72.4605 30.7891 72.4605 30.6143ZM76.5153 31.6561C76.3809 31.8577 76.2062 32.01 75.9911 32.1131C75.776 32.2161 75.5543 32.2677 75.3257 32.2677C75.0793 32.2677 74.8553 32.2251 74.6537 32.14C74.4565 32.0548 74.2863 31.9383 74.1429 31.7905C74.004 31.6426 73.8942 31.4679 73.8136 31.2663C73.7374 31.0646 73.6993 30.8473 73.6993 30.6143C73.6993 30.3813 73.7374 30.164 73.8136 29.9624C73.8942 29.7608 74.004 29.5861 74.1429 29.4382C74.2863 29.2903 74.4565 29.1738 74.6537 29.0887C74.8553 29.0036 75.0793 28.961 75.3257 28.961C75.5543 28.961 75.776 29.0148 75.9911 29.1223C76.2062 29.2254 76.3809 29.3799 76.5153 29.5861H76.5288V27.1061H76.9858V32.187H76.5288V31.6561H76.5153ZM74.1832 30.6143C74.1832 30.7891 74.2101 30.9549 74.2639 31.1117C74.3176 31.264 74.3938 31.3984 74.4924 31.5149C74.5954 31.6269 74.7209 31.7166 74.8687 31.7838C75.0166 31.8465 75.1846 31.8779 75.3728 31.8779C75.5475 31.8779 75.7088 31.8465 75.8567 31.7838C76.0045 31.7166 76.1322 31.6269 76.2398 31.5149C76.3473 31.4029 76.4302 31.2707 76.4884 31.1184C76.5512 30.9616 76.5825 30.7936 76.5825 30.6143C76.5825 30.4351 76.5512 30.2693 76.4884 30.117C76.4302 29.9602 76.3473 29.8258 76.2398 29.7137C76.1322 29.5973 76.0045 29.5076 75.8567 29.4449C75.7088 29.3777 75.5475 29.3441 75.3728 29.3441C75.1846 29.3441 75.0166 29.3777 74.8687 29.4449C74.7209 29.5121 74.5954 29.604 74.4924 29.7205C74.3938 29.8325 74.3176 29.9669 74.2639 30.1237C74.2101 30.2761 74.1832 30.4396 74.1832 30.6143Z" fill="#767676"/>
<path d="M10.0645 20.2018H10.126L17.1996 1.28767H19.5677L11.2332 23.062H8.89579L0.59202 1.28767H2.99089L10.0645 20.2018ZM21.4675 23.062H19.0379L28.4488 1.28767H30.6017L39.9511 23.062H37.4907L35.0918 17.3416H23.8356L21.4675 23.062ZM24.666 15.3118H34.2615L29.4637 3.74805L24.666 15.3118ZM45.3699 21.0937H55.519V23.062H43.1556V1.28767H45.3699V21.0937ZM79.4305 12.1748C79.4305 13.8356 79.1435 15.3631 78.5694 16.7573C77.9953 18.1515 77.1957 19.3612 76.1705 20.3864C75.1659 21.391 73.9665 22.1804 72.5722 22.7545C71.1985 23.3286 69.7018 23.6156 68.082 23.6156C66.4623 23.6156 64.9553 23.3286 63.5611 22.7545C62.1874 22.1804 60.988 21.391 59.9628 20.3864C58.9581 19.3612 58.1688 18.1515 57.5947 16.7573C57.0206 15.3631 56.7336 13.8356 56.7336 12.1748C56.7336 10.5141 57.0206 8.9866 57.5947 7.59239C58.1688 6.19817 58.9581 4.99874 59.9628 3.99409C60.988 2.96893 62.1874 2.16931 63.5611 1.59522C64.9553 1.02113 66.4623 0.734087 68.082 0.734087C69.7018 0.734087 71.1985 1.02113 72.5722 1.59522C73.9665 2.16931 75.1659 2.96893 76.1705 3.99409C77.1957 4.99874 77.9953 6.19817 78.5694 7.59239C79.1435 8.9866 79.4305 10.5141 79.4305 12.1748ZM77.0932 12.1748C77.0932 10.9036 76.8881 9.69396 76.4781 8.54578C76.068 7.39761 75.4734 6.39295 74.6943 5.53182C73.9152 4.65019 72.9618 3.95308 71.8341 3.4405C70.727 2.92792 69.4763 2.67163 68.082 2.67163C66.6878 2.67163 65.4269 2.92792 64.2992 3.4405C63.192 3.95308 62.2489 4.65019 61.4698 5.53182C60.6907 6.39295 60.0961 7.39761 59.686 8.54578C59.2759 9.69396 59.0709 10.9036 59.0709 12.1748C59.0709 13.446 59.2759 14.6557 59.686 15.8039C60.0961 16.9521 60.6907 17.9567 61.4698 18.8179C62.2489 19.679 63.192 20.3658 64.2992 20.8784C65.4269 21.391 66.6878 21.6473 68.082 21.6473C69.4763 21.6473 70.727 21.391 71.8341 20.8784C72.9618 20.3658 73.9152 19.679 74.6943 18.8179C75.4734 17.9567 76.068 16.9521 76.4781 15.8039C76.8881 14.6557 77.0932 13.446 77.0932 12.1748ZM86.2461 23.062H84.0317V1.28767H90.4287C91.4949 1.28767 92.479 1.39019 93.3812 1.59522C94.3038 1.80025 95.0932 2.13855 95.7493 2.61012C96.4259 3.06119 96.9487 3.65578 97.3178 4.3939C97.6868 5.13201 97.8714 6.03415 97.8714 7.10031C97.8714 7.89994 97.7278 8.6278 97.4408 9.2839C97.1537 9.94 96.7642 10.5141 96.2721 11.0062C95.78 11.4777 95.1957 11.857 94.5191 12.1441C93.8425 12.4311 93.1044 12.6157 92.3047 12.6977L98.671 23.062H95.9646L89.9366 12.8822H86.2461V23.062ZM86.2461 10.9754H90.0904C91.8742 10.9754 93.2479 10.6576 94.2115 10.022C95.1752 9.36591 95.657 8.39201 95.657 7.10031C95.657 6.3827 95.5237 5.77786 95.2572 5.28579C94.9907 4.79371 94.6216 4.3939 94.15 4.08635C93.6785 3.7788 93.1044 3.55327 92.4278 3.40975C91.7512 3.26622 91.0028 3.19446 90.1827 3.19446H86.2461V10.9754ZM140.609 23.6156C138.969 23.6156 137.626 23.3388 136.58 22.7852C135.535 22.2111 134.704 21.4935 134.089 20.6324C133.474 19.7713 133.043 18.8384 132.797 17.8337C132.572 16.8086 132.459 15.8449 132.459 14.9428V1.28767H134.673V14.6967C134.673 15.5784 134.776 16.4395 134.981 17.2801C135.186 18.1003 135.514 18.8384 135.965 19.4945C136.437 20.1301 137.052 20.6529 137.81 21.063C138.569 21.4525 139.502 21.6473 140.609 21.6473C141.716 21.6473 142.649 21.4525 143.408 21.063C144.166 20.6529 144.771 20.1301 145.222 19.4945C145.694 18.8384 146.032 18.1003 146.237 17.2801C146.442 16.4395 146.545 15.5784 146.545 14.6967V1.28767H148.759V14.9428C148.759 15.8449 148.636 16.8086 148.39 17.8337C148.165 18.8384 147.744 19.7713 147.129 20.6324C146.514 21.4935 145.673 22.2111 144.607 22.7852C143.562 23.3388 142.229 23.6156 140.609 23.6156ZM164.966 4.79371C164.494 4.13761 163.889 3.61478 163.151 3.22522C162.413 2.81516 161.521 2.61012 160.475 2.61012C159.942 2.61012 159.399 2.69214 158.845 2.85616C158.292 3.02019 157.79 3.27648 157.338 3.62503C156.887 3.95308 156.518 4.37339 156.231 4.88597C155.965 5.39855 155.831 6.00339 155.831 6.7005C155.831 7.39761 155.965 7.9717 156.231 8.42277C156.498 8.87384 156.846 9.26339 157.277 9.59145C157.728 9.89899 158.23 10.1553 158.784 10.3603C159.358 10.5653 159.953 10.7704 160.568 10.9754C161.326 11.2214 162.085 11.488 162.844 11.775C163.623 12.0621 164.32 12.4414 164.935 12.913C165.55 13.364 166.052 13.9484 166.442 14.666C166.831 15.3631 167.026 16.255 167.026 17.3416C167.026 18.4283 166.811 19.3714 166.38 20.1711C165.97 20.9502 165.427 21.596 164.75 22.1086C164.094 22.6212 163.336 23.0005 162.475 23.2465C161.634 23.4926 160.783 23.6156 159.922 23.6156C159.266 23.6156 158.61 23.5438 157.954 23.4003C157.297 23.2773 156.672 23.0825 156.078 22.816C155.483 22.5494 154.929 22.2111 154.417 21.8011C153.904 21.391 153.453 20.9194 153.064 20.3864L154.97 18.9716C155.442 19.7508 156.098 20.4069 156.939 20.9399C157.8 21.4525 158.804 21.7088 159.953 21.7088C160.506 21.7088 161.07 21.6268 161.644 21.4628C162.218 21.2782 162.731 21.0117 163.182 20.6631C163.653 20.2941 164.033 19.8533 164.32 19.3407C164.627 18.8076 164.781 18.1925 164.781 17.4954C164.781 16.7368 164.627 16.1114 164.32 15.6194C164.033 15.1068 163.643 14.6865 163.151 14.3584C162.659 14.0099 162.095 13.7228 161.46 13.4973C160.824 13.2718 160.158 13.0462 159.461 12.8207C158.743 12.5952 158.036 12.3389 157.338 12.0518C156.641 11.7648 156.016 11.3957 155.462 10.9447C154.909 10.4731 154.458 9.89899 154.109 9.22239C153.781 8.54578 153.617 7.71541 153.617 6.73126C153.617 5.6856 153.822 4.78346 154.232 4.02484C154.663 3.26623 155.216 2.64088 155.893 2.1488C156.57 1.65673 157.318 1.29792 158.138 1.07239C158.958 0.846854 159.768 0.734087 160.568 0.734087C162.044 0.734087 163.305 1.00063 164.351 1.53371C165.396 2.04629 166.186 2.66138 166.719 3.37899L164.966 4.79371Z" fill="white"/>
<g clip-path="url(#clip0_18_7)">
<path d="M114.027 12.3379L115.724 12.7518V51.5518L114.664 53.0448L114.715 25.8749L111.787 23.5531L105.63 23.755L106.437 22.6446L111.686 22.5436L114.513 20.2219L114.027 12.3379Z" fill="white"/>
<path d="M116.361 15.9399L116.897 61.4499L122.039 55.3567L118.994 28.4099L121.679 22.1886L116.361 15.9399Z" fill="white"/>
<path d="M116.924 15.3864L124.119 23.3538L127.154 8.08691C127.154 8.08691 124.119 11.5646 122.17 12.8312C120.222 14.0978 116.924 15.3864 116.924 15.3864Z" fill="white"/>
<path d="M102.684 12.4975C102.684 5.74008 108.162 0.262695 114.919 0.262695C119.76 0.262695 123.945 3.07407 125.928 7.15435L122.051 9.9738C121.135 5.88544 117.484 2.82978 113.119 2.82978C108.064 2.82978 103.965 6.92823 103.965 11.9837C103.965 15.9852 105.227 20.453 108.804 21.6976H106.758C104.299 19.4606 102.684 16.0841 102.684 12.4975Z" fill="white"/>
<path d="M111.527 25.2027C112.503 25.7185 113.17 26.5281 114.127 27.4275V29.1729C112.581 27.6668 111.957 26.7633 109.788 24.8271L111.527 25.2027Z" fill="white"/>
<path d="M131.675 46.4037L130.654 50.3144L126.438 47.5373C126.438 47.5373 126.686 45.156 126.438 43.7962C125.816 40.3862 123.339 37.0227 120.422 34.1134L120.01 32.1035C131.944 41.7329 131.675 46.4037 131.675 46.4037Z" fill="white"/>
</g>
<defs>
<clipPath id="clip0_18_7">
<rect width="28.991" height="61.187" fill="white" transform="translate(102.684 0.262695)"/>
</clipPath>
</defs>
</svg>
