<svg width="170" height="62" viewBox="0 0 170 62" fill="none" xmlns="http://www.w3.org/2000/svg">
<path d="M9.47851 30.1286C9.56812 29.9449 9.70478 29.7971 9.88848 29.6851C10.0767 29.5686 10.285 29.5103 10.5135 29.5103C10.5986 29.5103 10.686 29.5193 10.7756 29.5372C10.8697 29.5551 10.9593 29.591 11.0445 29.6447C11.1341 29.694 11.2147 29.7612 11.2864 29.8464C11.3626 29.9315 11.4276 30.0413 11.4813 30.1757C11.5889 29.9606 11.7345 29.7971 11.9182 29.6851C12.1064 29.5686 12.3281 29.5103 12.5835 29.5103C12.9823 29.5103 13.2803 29.6291 13.4774 29.8665C13.679 30.104 13.7798 30.4176 13.7798 30.8075V32.7363H13.3228V30.9956C13.3228 30.6641 13.2601 30.3975 13.1346 30.1959C13.0137 29.9942 12.8053 29.8934 12.5096 29.8934C12.3438 29.8934 12.2027 29.927 12.0862 29.9942C11.9742 30.0614 11.8823 30.151 11.8106 30.2631C11.7434 30.3706 11.6941 30.4938 11.6628 30.6327C11.6314 30.7716 11.6157 30.915 11.6157 31.0628V32.7363H11.1587V30.9015C11.1587 30.7492 11.1475 30.6103 11.1251 30.4849C11.1027 30.3594 11.0624 30.2541 11.0041 30.169C10.9504 30.0794 10.8742 30.0122 10.7756 29.9673C10.6771 29.9181 10.5516 29.8934 10.3993 29.8934C10.2917 29.8934 10.182 29.9181 10.0699 29.9673C9.96241 30.0166 9.86384 30.0928 9.77423 30.1959C9.6891 30.2944 9.61965 30.4221 9.56588 30.5789C9.51211 30.7313 9.48523 30.9127 9.48523 31.1233V32.7363H9.02821V30.2832C9.02821 30.1981 9.02597 30.0883 9.02149 29.9539C9.01701 29.8195 9.01029 29.6985 9.00133 29.591H9.43818C9.44715 29.6761 9.45387 29.7702 9.45835 29.8733C9.46283 29.9763 9.46507 30.0614 9.46507 30.1286H9.47851ZM17.3608 30.9217C17.3473 30.626 17.251 30.3818 17.0718 30.1891C16.897 29.992 16.6461 29.8934 16.3191 29.8934C16.1667 29.8934 16.0256 29.9225 15.8956 29.9808C15.7657 30.0346 15.6515 30.1107 15.5529 30.2093C15.4543 30.3034 15.3759 30.4132 15.3176 30.5386C15.2594 30.6596 15.2258 30.7873 15.2168 30.9217H17.3608ZM17.8245 31.0696C17.8245 31.1009 17.8245 31.1345 17.8245 31.1704C17.8245 31.2062 17.8223 31.2443 17.8178 31.2846H15.2101C15.2146 31.4414 15.246 31.5893 15.3042 31.7282C15.3625 31.8671 15.4431 31.9881 15.5462 32.0911C15.6492 32.1942 15.7702 32.2771 15.9091 32.3398C16.048 32.398 16.1981 32.4272 16.3594 32.4272C16.5968 32.4272 16.8007 32.3734 16.971 32.2659C17.1457 32.1539 17.2779 32.0262 17.3675 31.8828L17.7103 32.1516C17.5221 32.3891 17.3137 32.5593 17.0852 32.6624C16.8612 32.7655 16.6192 32.817 16.3594 32.817C16.1264 32.817 15.9091 32.7767 15.7075 32.696C15.5103 32.6109 15.3401 32.4944 15.1967 32.3465C15.0533 32.1987 14.939 32.0239 14.8539 31.8223C14.7733 31.6207 14.7329 31.4011 14.7329 31.1637C14.7329 30.9262 14.7733 30.7066 14.8539 30.505C14.9346 30.3034 15.0466 30.1286 15.19 29.9808C15.3333 29.8329 15.5014 29.7187 15.694 29.638C15.8867 29.5529 16.095 29.5103 16.3191 29.5103C16.5655 29.5103 16.7828 29.5529 16.971 29.638C17.1592 29.7187 17.316 29.8307 17.4414 29.9741C17.5669 30.113 17.661 30.2765 17.7237 30.4647C17.7909 30.6529 17.8245 30.8545 17.8245 31.0696ZM19.2175 29.591C19.2265 29.6761 19.2332 29.7702 19.2377 29.8733C19.2422 29.9763 19.2444 30.0614 19.2444 30.1286H19.2578C19.3475 29.9449 19.4931 29.7971 19.6947 29.6851C19.8963 29.5686 20.1091 29.5103 20.3332 29.5103C20.7319 29.5103 21.0299 29.6291 21.227 29.8665C21.4287 30.104 21.5295 30.4176 21.5295 30.8075V32.7363H21.0725V30.9956C21.0725 30.8299 21.059 30.6798 21.0321 30.5453C21.0053 30.4109 20.9582 30.2967 20.891 30.2026C20.8283 30.104 20.7409 30.0278 20.6289 29.9741C20.5214 29.9203 20.3847 29.8934 20.2189 29.8934C20.0979 29.8934 19.9792 29.9181 19.8627 29.9673C19.7507 30.0166 19.6499 30.0928 19.5603 30.1959C19.4707 30.2944 19.399 30.4221 19.3452 30.5789C19.2914 30.7313 19.2646 30.9127 19.2646 31.1233V32.7363H18.8075V30.2832C18.8075 30.1981 18.8053 30.0883 18.8008 29.9539C18.7963 29.8195 18.7896 29.6985 18.7807 29.591H19.2175ZM26.3756 30.7066C26.3756 30.4333 26.3039 30.2295 26.1605 30.095C26.0171 29.9606 25.8088 29.8934 25.5355 29.8934C25.3473 29.8934 25.1725 29.927 25.0112 29.9942C24.8499 30.0614 24.7133 30.151 24.6013 30.2631L24.3459 29.9606C24.4758 29.8307 24.6461 29.7232 24.8567 29.638C25.0717 29.5529 25.3137 29.5103 25.5825 29.5103C25.7528 29.5103 25.9118 29.535 26.0597 29.5843C26.2075 29.6291 26.3375 29.6985 26.4495 29.7926C26.5615 29.8867 26.6489 30.0054 26.7116 30.1488C26.7743 30.2922 26.8057 30.4602 26.8057 30.6529V32.0306C26.8057 32.1516 26.8102 32.2771 26.8191 32.407C26.8281 32.5369 26.8415 32.6467 26.8595 32.7363H26.4495C26.4361 32.6602 26.4248 32.5773 26.4159 32.4877C26.4069 32.398 26.4024 32.3107 26.4024 32.2255H26.389C26.2456 32.4361 26.0821 32.5885 25.8984 32.6826C25.7192 32.7722 25.5019 32.817 25.2465 32.817C25.1255 32.817 25 32.7991 24.8701 32.7632C24.7446 32.7318 24.6281 32.6781 24.5206 32.6019C24.4176 32.5257 24.3302 32.4272 24.2585 32.3062C24.1913 32.1852 24.1577 32.0374 24.1577 31.8626C24.1577 31.6207 24.2182 31.4302 24.3392 31.2914C24.4646 31.148 24.6304 31.0427 24.8365 30.9755C25.0426 30.9038 25.2778 30.859 25.5422 30.8411C25.811 30.8187 26.0888 30.8075 26.3756 30.8075V30.7066ZM26.2411 31.1637C26.053 31.1637 25.8625 31.1726 25.6699 31.1905C25.4817 31.204 25.3092 31.2353 25.1524 31.2846C25 31.3294 24.8746 31.3966 24.776 31.4863C24.6774 31.5759 24.6281 31.6946 24.6281 31.8425C24.6281 31.9545 24.6483 32.0486 24.6886 32.1247C24.7334 32.2009 24.7917 32.2636 24.8634 32.3129C24.9351 32.3577 25.0135 32.3913 25.0986 32.4137C25.1882 32.4317 25.2778 32.4406 25.3674 32.4406C25.5287 32.4406 25.6721 32.4137 25.7976 32.36C25.923 32.3017 26.0283 32.2255 26.1135 32.1315C26.1986 32.0329 26.2636 31.9209 26.3084 31.7954C26.3532 31.67 26.3756 31.5378 26.3756 31.3989V31.1637H26.2411ZM30.248 30.3101C30.1718 30.1891 30.0598 30.0906 29.9119 30.0144C29.7686 29.9337 29.6117 29.8934 29.4415 29.8934C29.2578 29.8934 29.092 29.927 28.9441 29.9942C28.7963 30.057 28.6686 30.1466 28.561 30.2631C28.458 30.3751 28.3773 30.5095 28.3191 30.6663C28.2653 30.8187 28.2384 30.9844 28.2384 31.1637C28.2384 31.3429 28.2653 31.5087 28.3191 31.661C28.3773 31.8133 28.458 31.9478 28.561 32.0642C28.6641 32.1763 28.7895 32.2659 28.9374 32.3331C29.0853 32.3958 29.251 32.4272 29.4347 32.4272C29.6364 32.4272 29.8066 32.3891 29.9455 32.3129C30.0844 32.2367 30.1987 32.1382 30.2883 32.0172L30.6311 32.2726C30.4966 32.4384 30.3309 32.5705 30.1337 32.6691C29.9411 32.7677 29.7081 32.817 29.4347 32.817C29.1794 32.817 28.9486 32.7767 28.7425 32.696C28.5364 32.6109 28.3594 32.4944 28.2116 32.3465C28.0682 32.1987 27.9562 32.0239 27.8755 31.8223C27.7949 31.6207 27.7545 31.4011 27.7545 31.1637C27.7545 30.9262 27.7949 30.7066 27.8755 30.505C27.9562 30.3034 28.0682 30.1286 28.2116 29.9808C28.3594 29.8329 28.5364 29.7187 28.7425 29.638C28.9486 29.5529 29.1794 29.5103 29.4347 29.5103C29.6453 29.5103 29.8582 29.5574 30.0732 29.6515C30.2928 29.7411 30.4698 29.8755 30.6042 30.0547L30.248 30.3101ZM33.6084 30.3101C33.5322 30.1891 33.4202 30.0906 33.2723 30.0144C33.129 29.9337 32.9721 29.8934 32.8019 29.8934C32.6182 29.8934 32.4524 29.927 32.3045 29.9942C32.1567 30.057 32.029 30.1466 31.9215 30.2631C31.8184 30.3751 31.7378 30.5095 31.6795 30.6663C31.6257 30.8187 31.5989 30.9844 31.5989 31.1637C31.5989 31.3429 31.6257 31.5087 31.6795 31.661C31.7378 31.8133 31.8184 31.9478 31.9215 32.0642C32.0245 32.1763 32.15 32.2659 32.2978 32.3331C32.4457 32.3958 32.6115 32.4272 32.7952 32.4272C32.9968 32.4272 33.167 32.3891 33.3059 32.3129C33.4448 32.2367 33.5591 32.1382 33.6487 32.0172L33.9915 32.2726C33.8571 32.4384 33.6913 32.5705 33.4941 32.6691C33.3015 32.7677 33.0685 32.817 32.7952 32.817C32.5398 32.817 32.309 32.7767 32.1029 32.696C31.8968 32.6109 31.7198 32.4944 31.572 32.3465C31.4286 32.1987 31.3166 32.0239 31.2359 31.8223C31.1553 31.6207 31.115 31.4011 31.115 31.1637C31.115 30.9262 31.1553 30.7066 31.2359 30.505C31.3166 30.3034 31.4286 30.1286 31.572 29.9808C31.7198 29.8329 31.8968 29.7187 32.1029 29.638C32.309 29.5529 32.5398 29.5103 32.7952 29.5103C33.0057 29.5103 33.2186 29.5574 33.4336 29.6515C33.6532 29.7411 33.8302 29.8755 33.9646 30.0547L33.6084 30.3101ZM37.8291 31.1637C37.8291 31.4011 37.7865 31.6207 37.7014 31.8223C37.6207 32.0239 37.5065 32.1987 37.3586 32.3465C37.2107 32.4944 37.0338 32.6109 36.8277 32.696C36.6216 32.7767 36.3953 32.817 36.1489 32.817C35.9069 32.817 35.6829 32.7767 35.4768 32.696C35.2707 32.6109 35.0937 32.4944 34.9458 32.3465C34.798 32.1987 34.6815 32.0239 34.5963 31.8223C34.5157 31.6207 34.4754 31.4011 34.4754 31.1637C34.4754 30.9262 34.5157 30.7066 34.5963 30.505C34.6815 30.3034 34.798 30.1286 34.9458 29.9808C35.0937 29.8329 35.2707 29.7187 35.4768 29.638C35.6829 29.5529 35.9069 29.5103 36.1489 29.5103C36.3953 29.5103 36.6216 29.5529 36.8277 29.638C37.0338 29.7187 37.2107 29.8329 37.3586 29.9808C37.5065 30.1286 37.6207 30.3034 37.7014 30.505C37.7865 30.7066 37.8291 30.9262 37.8291 31.1637ZM37.3452 31.1637C37.3452 30.9889 37.316 30.8254 37.2578 30.673C37.204 30.5162 37.1256 30.3818 37.0226 30.2698C36.9195 30.1533 36.7941 30.0614 36.6462 29.9942C36.4983 29.927 36.3326 29.8934 36.1489 29.8934C35.9652 29.8934 35.7994 29.927 35.6515 29.9942C35.5081 30.0614 35.3849 30.1533 35.2819 30.2698C35.1788 30.3818 35.0982 30.5162 35.0399 30.673C34.9862 30.8254 34.9593 30.9889 34.9593 31.1637C34.9593 31.3384 34.9862 31.5042 35.0399 31.661C35.0982 31.8133 35.1788 31.9478 35.2819 32.0642C35.3849 32.1763 35.5081 32.2659 35.6515 32.3331C35.7994 32.3958 35.9652 32.4272 36.1489 32.4272C36.3326 32.4272 36.4983 32.3958 36.6462 32.3331C36.7941 32.2659 36.9195 32.1763 37.0226 32.0642C37.1256 31.9478 37.204 31.8133 37.2578 31.661C37.316 31.5042 37.3452 31.3384 37.3452 31.1637ZM38.8125 30.2832C38.8125 30.1981 38.8103 30.0883 38.8058 29.9539C38.8013 29.8195 38.7946 29.6985 38.7856 29.591H39.2225C39.2314 29.6761 39.2382 29.7702 39.2426 29.8733C39.2471 29.9763 39.2494 30.0614 39.2494 30.1286H39.2628C39.3524 29.9449 39.4868 29.7971 39.6661 29.6851C39.8453 29.5686 40.0469 29.5103 40.2709 29.5103C40.3292 29.5103 40.3807 29.5126 40.4255 29.5171C40.4748 29.5215 40.5241 29.5305 40.5734 29.5439L40.5129 29.9741C40.486 29.9651 40.4412 29.9561 40.3785 29.9472C40.3157 29.9382 40.253 29.9337 40.1903 29.9337C40.0693 29.9337 39.9528 29.9561 39.8408 30.001C39.7288 30.0458 39.6302 30.1174 39.5451 30.216C39.4644 30.3101 39.3972 30.4333 39.3435 30.5857C39.2942 30.7335 39.2695 30.9127 39.2695 31.1233V32.7363H38.8125V30.2832ZM43.7037 32.2054C43.5693 32.407 43.3946 32.5593 43.1795 32.6624C42.9645 32.7655 42.7427 32.817 42.5142 32.817C42.2677 32.817 42.0437 32.7744 41.8421 32.6893C41.6449 32.6042 41.4747 32.4877 41.3313 32.3398C41.1924 32.1919 41.0826 32.0172 41.002 31.8156C40.9258 31.6139 40.8877 31.3966 40.8877 31.1637C40.8877 30.9307 40.9258 30.7134 41.002 30.5117C41.0826 30.3101 41.1924 30.1354 41.3313 29.9875C41.4747 29.8397 41.6449 29.7232 41.8421 29.638C42.0437 29.5529 42.2677 29.5103 42.5142 29.5103C42.7427 29.5103 42.9645 29.5641 43.1795 29.6716C43.3946 29.7747 43.5693 29.9293 43.7037 30.1354H43.7172V27.6554H44.1742V32.7363H43.7172V32.2054H43.7037ZM41.3716 31.1637C41.3716 31.3384 41.3985 31.5042 41.4523 31.661C41.506 31.8133 41.5822 31.9478 41.6808 32.0642C41.7838 32.1763 41.9093 32.2659 42.0571 32.3331C42.205 32.3958 42.373 32.4272 42.5612 32.4272C42.736 32.4272 42.8973 32.3958 43.0451 32.3331C43.193 32.2659 43.3207 32.1763 43.4282 32.0642C43.5357 31.9522 43.6186 31.8201 43.6769 31.6677C43.7396 31.5109 43.771 31.3429 43.771 31.1637C43.771 30.9844 43.7396 30.8187 43.6769 30.6663C43.6186 30.5095 43.5357 30.3751 43.4282 30.2631C43.3207 30.1466 43.193 30.057 43.0451 29.9942C42.8973 29.927 42.736 29.8934 42.5612 29.8934C42.373 29.8934 42.205 29.927 42.0571 29.9942C41.9093 30.0614 41.7838 30.1533 41.6808 30.2698C41.5822 30.3818 41.506 30.5162 41.4523 30.673C41.3985 30.8254 41.3716 30.9889 41.3716 31.1637ZM45.8592 32.7363H45.4022V29.591H45.8592V32.7363ZM45.9533 28.3812C45.9533 28.4753 45.9197 28.5537 45.8525 28.6165C45.7853 28.6747 45.7114 28.7038 45.6307 28.7038C45.5501 28.7038 45.4762 28.6747 45.409 28.6165C45.3417 28.5537 45.3081 28.4753 45.3081 28.3812C45.3081 28.2871 45.3417 28.211 45.409 28.1527C45.4762 28.09 45.5501 28.0586 45.6307 28.0586C45.7114 28.0586 45.7853 28.09 45.8525 28.1527C45.9197 28.211 45.9533 28.2871 45.9533 28.3812ZM47.4857 29.591C47.4946 29.6761 47.5014 29.7702 47.5058 29.8733C47.5103 29.9763 47.5126 30.0614 47.5126 30.1286H47.526C47.6156 29.9449 47.7612 29.7971 47.9629 29.6851C48.1645 29.5686 48.3773 29.5103 48.6013 29.5103C49.0001 29.5103 49.2981 29.6291 49.4952 29.8665C49.6968 30.104 49.7977 30.4176 49.7977 30.8075V32.7363H49.3406V30.9956C49.3406 30.8299 49.3272 30.6798 49.3003 30.5453C49.2734 30.4109 49.2264 30.2967 49.1592 30.2026C49.0964 30.104 49.0091 30.0278 48.8971 29.9741C48.7895 29.9203 48.6529 29.8934 48.4871 29.8934C48.3661 29.8934 48.2474 29.9181 48.1309 29.9673C48.0189 30.0166 47.9181 30.0928 47.8284 30.1959C47.7388 30.2944 47.6671 30.4221 47.6134 30.5789C47.5596 30.7313 47.5327 30.9127 47.5327 31.1233V32.7363H47.0757V30.2832C47.0757 30.1981 47.0735 30.0883 47.069 29.9539C47.0645 29.8195 47.0578 29.6985 47.0488 29.591H47.4857ZM51.1489 33.3681C51.2744 33.5294 51.4446 33.666 51.6597 33.7781C51.8792 33.8901 52.11 33.9461 52.3519 33.9461C52.576 33.9461 52.7664 33.9125 52.9232 33.8453C53.08 33.7825 53.2055 33.6952 53.2996 33.5832C53.3981 33.4711 53.4698 33.339 53.5146 33.1866C53.5594 33.0388 53.5818 32.8797 53.5818 32.7094V32.118H53.5684C53.4474 32.3152 53.2749 32.4675 53.0509 32.575C52.8313 32.6826 52.6073 32.7363 52.3788 32.7363C52.1324 32.7363 51.9084 32.696 51.7067 32.6154C51.5096 32.5347 51.3393 32.4249 51.1959 32.286C51.0571 32.1427 50.9473 31.9724 50.8666 31.7752C50.7905 31.5781 50.7524 31.3653 50.7524 31.1368C50.7524 30.9127 50.7905 30.7022 50.8666 30.505C50.9473 30.3079 51.0571 30.1354 51.1959 29.9875C51.3393 29.8397 51.5096 29.7232 51.7067 29.638C51.9084 29.5529 52.1324 29.5103 52.3788 29.5103C52.6073 29.5103 52.8313 29.5641 53.0509 29.6716C53.2704 29.7792 53.4429 29.9337 53.5684 30.1354H53.5818V29.591H54.0389V32.7094C54.0389 32.8797 54.0142 33.0612 53.9649 33.2538C53.9201 33.4465 53.8328 33.6235 53.7028 33.7848C53.5774 33.9461 53.4049 34.0805 53.1853 34.188C52.9658 34.2956 52.6813 34.3493 52.3318 34.3493C52.0405 34.3493 51.7627 34.2933 51.4984 34.1813C51.234 34.0693 51.0078 33.9147 50.8196 33.7176L51.1489 33.3681ZM51.2363 31.1233C51.2363 31.2891 51.2632 31.4459 51.3169 31.5938C51.3707 31.7416 51.4469 31.8716 51.5454 31.9836C51.6485 32.0956 51.7739 32.1852 51.9218 32.2524C52.0697 32.3152 52.2377 32.3465 52.4259 32.3465C52.6006 32.3465 52.7619 32.3174 52.9098 32.2591C53.0576 32.2009 53.1853 32.118 53.2928 32.0105C53.4004 31.9029 53.4833 31.7752 53.5415 31.6274C53.6042 31.4751 53.6356 31.307 53.6356 31.1233C53.6356 30.9575 53.6042 30.8007 53.5415 30.6529C53.4833 30.505 53.4004 30.3751 53.2928 30.2631C53.1853 30.151 53.0576 30.0614 52.9098 29.9942C52.7619 29.927 52.6006 29.8934 52.4259 29.8934C52.2377 29.8934 52.0697 29.927 51.9218 29.9942C51.7739 30.0614 51.6485 30.151 51.5454 30.2631C51.4469 30.3751 51.3707 30.505 51.3169 30.6529C51.2632 30.8007 51.2363 30.9575 51.2363 31.1233ZM58.3256 29.9741H57.4385V31.8089C57.4385 31.9253 57.4497 32.0217 57.4721 32.0978C57.4945 32.174 57.5259 32.2345 57.5662 32.2793C57.611 32.3196 57.6625 32.3488 57.7208 32.3667C57.779 32.3801 57.8417 32.3868 57.909 32.3868C57.9717 32.3868 58.0367 32.3779 58.1039 32.36C58.1755 32.342 58.2428 32.3174 58.3055 32.286L58.3256 32.6826C58.245 32.7139 58.1599 32.7363 58.0703 32.7498C57.9851 32.7677 57.891 32.7767 57.788 32.7767C57.7028 32.7767 57.6132 32.7655 57.5191 32.743C57.4251 32.7206 57.3377 32.6781 57.257 32.6154C57.1764 32.5526 57.1092 32.4675 57.0554 32.36C57.0061 32.2524 56.9815 32.1113 56.9815 31.9365V29.9741H56.3296V29.591H56.9815V28.7038H57.4385V29.591H58.3256V29.9741ZM62.1658 31.1637C62.1658 31.4011 62.1232 31.6207 62.0381 31.8223C61.9575 32.0239 61.8432 32.1987 61.6954 32.3465C61.5475 32.4944 61.3705 32.6109 61.1644 32.696C60.9583 32.7767 60.732 32.817 60.4856 32.817C60.2437 32.817 60.0196 32.7767 59.8135 32.696C59.6074 32.6109 59.4304 32.4944 59.2826 32.3465C59.1347 32.1987 59.0182 32.0239 58.9331 31.8223C58.8524 31.6207 58.8121 31.4011 58.8121 31.1637C58.8121 30.9262 58.8524 30.7066 58.9331 30.505C59.0182 30.3034 59.1347 30.1286 59.2826 29.9808C59.4304 29.8329 59.6074 29.7187 59.8135 29.638C60.0196 29.5529 60.2437 29.5103 60.4856 29.5103C60.732 29.5103 60.9583 29.5529 61.1644 29.638C61.3705 29.7187 61.5475 29.8329 61.6954 29.9808C61.8432 30.1286 61.9575 30.3034 62.0381 30.505C62.1232 30.7066 62.1658 30.9262 62.1658 31.1637ZM61.6819 31.1637C61.6819 30.9889 61.6528 30.8254 61.5945 30.673C61.5408 30.5162 61.4624 30.3818 61.3593 30.2698C61.2563 30.1533 61.1308 30.0614 60.9829 29.9942C60.8351 29.927 60.6693 29.8934 60.4856 29.8934C60.3019 29.8934 60.1361 29.927 59.9883 29.9942C59.8449 30.0614 59.7217 30.1533 59.6186 30.2698C59.5156 30.3818 59.4349 30.5162 59.3767 30.673C59.3229 30.8254 59.296 30.9889 59.296 31.1637C59.296 31.3384 59.3229 31.5042 59.3767 31.661C59.4349 31.8133 59.5156 31.9478 59.6186 32.0642C59.7217 32.1763 59.8449 32.2659 59.9883 32.3331C60.1361 32.3958 60.3019 32.4272 60.4856 32.4272C60.6693 32.4272 60.8351 32.3958 60.9829 32.3331C61.1308 32.2659 61.2563 32.1763 61.3593 32.0642C61.4624 31.9478 61.5408 31.8133 61.5945 31.661C61.6528 31.5042 61.6819 31.3384 61.6819 31.1637ZM68.4654 28.8315C68.2997 28.6568 68.1025 28.5224 67.874 28.4283C67.6455 28.3297 67.3834 28.2804 67.0877 28.2804C66.783 28.2804 66.5074 28.3364 66.261 28.4484C66.0191 28.5605 65.8129 28.7128 65.6427 28.9055C65.4724 29.0936 65.3402 29.3132 65.2462 29.5641C65.1565 29.815 65.1117 30.0794 65.1117 30.3572C65.1117 30.6349 65.1565 30.8993 65.2462 31.1502C65.3402 31.4011 65.4724 31.6207 65.6427 31.8089C65.8129 31.997 66.0191 32.1471 66.261 32.2591C66.5074 32.3712 66.783 32.4272 67.0877 32.4272C67.3565 32.4272 67.6029 32.398 67.827 32.3398C68.051 32.2816 68.2324 32.2076 68.3713 32.118V30.673H67.2624V30.2496H68.8552V32.3936C68.5954 32.5504 68.3153 32.6669 68.0151 32.743C67.7149 32.8192 67.4035 32.8573 67.0809 32.8573C66.7225 32.8573 66.3909 32.7946 66.0863 32.6691C65.7816 32.5437 65.5195 32.3712 65.2999 32.1516C65.0804 31.9276 64.9079 31.6632 64.7824 31.3586C64.6614 31.0539 64.601 30.7201 64.601 30.3572C64.601 29.9942 64.6637 29.6604 64.7891 29.3558C64.9146 29.0511 65.0871 28.789 65.3066 28.5694C65.5307 28.3454 65.7928 28.1706 66.093 28.0452C66.3977 27.9197 66.727 27.857 67.0809 27.857C67.4618 27.857 67.7934 27.913 68.0756 28.025C68.3579 28.137 68.5998 28.2939 68.8015 28.4955L68.4654 28.8315ZM73.1922 31.1637C73.1922 31.4011 73.1496 31.6207 73.0645 31.8223C72.9838 32.0239 72.8696 32.1987 72.7217 32.3465C72.5739 32.4944 72.3969 32.6109 72.1908 32.696C71.9847 32.7767 71.7584 32.817 71.512 32.817C71.27 32.817 71.046 32.7767 70.8399 32.696C70.6338 32.6109 70.4568 32.4944 70.3089 32.3465C70.1611 32.1987 70.0446 32.0239 69.9594 31.8223C69.8788 31.6207 69.8385 31.4011 69.8385 31.1637C69.8385 30.9262 69.8788 30.7066 69.9594 30.505C70.0446 30.3034 70.1611 30.1286 70.3089 29.9808C70.4568 29.8329 70.6338 29.7187 70.8399 29.638C71.046 29.5529 71.27 29.5103 71.512 29.5103C71.7584 29.5103 71.9847 29.5529 72.1908 29.638C72.3969 29.7187 72.5739 29.8329 72.7217 29.9808C72.8696 30.1286 72.9838 30.3034 73.0645 30.505C73.1496 30.7066 73.1922 30.9262 73.1922 31.1637ZM72.7083 31.1637C72.7083 30.9889 72.6791 30.8254 72.6209 30.673C72.5671 30.5162 72.4887 30.3818 72.3857 30.2698C72.2826 30.1533 72.1572 30.0614 72.0093 29.9942C71.8614 29.927 71.6957 29.8934 71.512 29.8934C71.3283 29.8934 71.1625 29.927 71.0146 29.9942C70.8712 30.0614 70.748 30.1533 70.645 30.2698C70.5419 30.3818 70.4613 30.5162 70.403 30.673C70.3493 30.8254 70.3224 30.9889 70.3224 31.1637C70.3224 31.3384 70.3493 31.5042 70.403 31.661C70.4613 31.8133 70.5419 31.9478 70.645 32.0642C70.748 32.1763 70.8712 32.2659 71.0146 32.3331C71.1625 32.3958 71.3283 32.4272 71.512 32.4272C71.6957 32.4272 71.8614 32.3958 72.0093 32.3331C72.1572 32.2659 72.2826 32.1763 72.3857 32.0642C72.4887 31.9478 72.5671 31.8133 72.6209 31.661C72.6791 31.5042 72.7083 31.3384 72.7083 31.1637ZM76.7631 32.2054C76.6287 32.407 76.454 32.5593 76.2389 32.6624C76.0238 32.7655 75.8021 32.817 75.5735 32.817C75.3271 32.817 75.1031 32.7744 74.9015 32.6893C74.7043 32.6042 74.5341 32.4877 74.3907 32.3398C74.2518 32.1919 74.142 32.0172 74.0614 31.8156C73.9852 31.6139 73.9471 31.3966 73.9471 31.1637C73.9471 30.9307 73.9852 30.7134 74.0614 30.5117C74.142 30.3101 74.2518 30.1354 74.3907 29.9875C74.5341 29.8397 74.7043 29.7232 74.9015 29.638C75.1031 29.5529 75.3271 29.5103 75.5735 29.5103C75.8021 29.5103 76.0238 29.5641 76.2389 29.6716C76.454 29.7747 76.6287 29.9293 76.7631 30.1354H76.7766V27.6554H77.2336V32.7363H76.7766V32.2054H76.7631ZM74.431 31.1637C74.431 31.3384 74.4579 31.5042 74.5117 31.661C74.5654 31.8133 74.6416 31.9478 74.7402 32.0642C74.8432 32.1763 74.9687 32.2659 75.1165 32.3331C75.2644 32.3958 75.4324 32.4272 75.6206 32.4272C75.7953 32.4272 75.9566 32.3958 76.1045 32.3331C76.2524 32.2659 76.38 32.1763 76.4876 32.0642C76.5951 31.9522 76.678 31.8201 76.7362 31.6677C76.799 31.5109 76.8303 31.3429 76.8303 31.1637C76.8303 30.9844 76.799 30.8187 76.7362 30.6663C76.678 30.5095 76.5951 30.3751 76.4876 30.2631C76.38 30.1466 76.2524 30.057 76.1045 29.9942C75.9566 29.927 75.7953 29.8934 75.6206 29.8934C75.4324 29.8934 75.2644 29.927 75.1165 29.9942C74.9687 30.0614 74.8432 30.1533 74.7402 30.2698C74.6416 30.3818 74.5654 30.5162 74.5117 30.673C74.4579 30.8254 74.431 30.9889 74.431 31.1637Z" fill="#767676"/>
<path d="M10.3123 20.7511H10.3738L17.4474 1.83699H19.8155L11.481 23.6113H9.1436L0.839823 1.83699H3.23869L10.3123 20.7511ZM21.7153 23.6113H19.2857L28.6966 1.83699H30.8495L40.1989 23.6113H37.7385L35.3396 17.891H24.0834L21.7153 23.6113ZM24.9138 15.8611H34.5093L29.7115 4.29737L24.9138 15.8611ZM45.6177 21.643H55.7668V23.6113H43.4034V1.83699H45.6177V21.643ZM79.6783 12.7242C79.6783 14.3849 79.3913 15.9124 78.8172 17.3066C78.2431 18.7008 77.4435 19.9105 76.4183 20.9357C75.4137 21.9403 74.2143 22.7297 72.82 23.3038C71.4463 23.8779 69.9496 24.1649 68.3298 24.1649C66.7101 24.1649 65.2031 23.8779 63.8089 23.3038C62.4352 22.7297 61.2358 21.9403 60.2106 20.9357C59.2059 19.9105 58.4166 18.7008 57.8425 17.3066C57.2684 15.9124 56.9814 14.3849 56.9814 12.7242C56.9814 11.0634 57.2684 9.53592 57.8425 8.1417C58.4166 6.74749 59.2059 5.54806 60.2106 4.5434C61.2358 3.51825 62.4352 2.71862 63.8089 2.14454C65.2031 1.57045 66.7101 1.2834 68.3298 1.2834C69.9496 1.2834 71.4463 1.57045 72.82 2.14454C74.2143 2.71862 75.4137 3.51825 76.4183 4.5434C77.4435 5.54806 78.2431 6.74749 78.8172 8.1417C79.3913 9.53592 79.6783 11.0634 79.6783 12.7242ZM77.341 12.7242C77.341 11.453 77.136 10.2433 76.7259 9.0951C76.3158 7.94693 75.7212 6.94227 74.9421 6.08114C74.163 5.1995 73.2096 4.5024 72.0819 3.98982C70.9748 3.47724 69.7241 3.22095 68.3298 3.22095C66.9356 3.22095 65.6747 3.47724 64.547 3.98982C63.4398 4.5024 62.4967 5.1995 61.7176 6.08114C60.9385 6.94227 60.3439 7.94693 59.9338 9.0951C59.5237 10.2433 59.3187 11.453 59.3187 12.7242C59.3187 13.9954 59.5237 15.205 59.9338 16.3532C60.3439 17.5014 60.9385 18.506 61.7176 19.3672C62.4967 20.2283 63.4398 20.9152 64.547 21.4277C65.6747 21.9403 66.9356 22.1966 68.3298 22.1966C69.7241 22.1966 70.9748 21.9403 72.0819 21.4277C73.2096 20.9152 74.163 20.2283 74.9421 19.3672C75.7212 18.506 76.3158 17.5014 76.7259 16.3532C77.136 15.205 77.341 13.9954 77.341 12.7242ZM86.4939 23.6113H84.2795V1.83699H90.6765C91.7427 1.83699 92.7268 1.9395 93.629 2.14454C94.5516 2.34957 95.341 2.68787 95.9971 3.15944C96.6737 3.61051 97.1965 4.2051 97.5656 4.94321C97.9346 5.68133 98.1192 6.58347 98.1192 7.64963C98.1192 8.44925 97.9756 9.17711 97.6886 9.83321C97.4015 10.4893 97.012 11.0634 96.5199 11.5555C96.0278 12.0271 95.4435 12.4064 94.7669 12.6934C94.0903 12.9804 93.3522 13.165 92.5526 13.247L98.9188 23.6113H96.2124L90.1844 13.4315H86.4939V23.6113ZM86.4939 11.5247H90.3382C92.122 11.5247 93.4957 11.2069 94.4593 10.5713C95.423 9.91523 95.9048 8.94133 95.9048 7.64963C95.9048 6.93202 95.7715 6.32718 95.505 5.8351C95.2385 5.34303 94.8694 4.94321 94.3978 4.63567C93.9263 4.32812 93.3522 4.10258 92.6756 3.95906C91.999 3.81554 91.2506 3.74378 90.4305 3.74378H86.4939V11.5247ZM140.857 24.1649C139.217 24.1649 137.874 23.8881 136.828 23.3345C135.782 22.7604 134.952 22.0428 134.337 21.1817C133.722 20.3206 133.291 19.3877 133.045 18.383C132.82 17.3579 132.707 16.3942 132.707 15.4921V1.83699H134.921V15.246C134.921 16.1277 135.024 16.9888 135.229 17.8294C135.434 18.6496 135.762 19.3877 136.213 20.0438C136.685 20.6794 137.3 21.2022 138.058 21.6123C138.817 22.0018 139.75 22.1966 140.857 22.1966C141.964 22.1966 142.897 22.0018 143.656 21.6123C144.414 21.2022 145.019 20.6794 145.47 20.0438C145.942 19.3877 146.28 18.6496 146.485 17.8294C146.69 16.9888 146.793 16.1277 146.793 15.246V1.83699H149.007V15.4921C149.007 16.3942 148.884 17.3579 148.638 18.383C148.412 19.3877 147.992 20.3206 147.377 21.1817C146.762 22.0428 145.921 22.7604 144.855 23.3345C143.809 23.8881 142.477 24.1649 140.857 24.1649ZM165.213 5.34303C164.742 4.68692 164.137 4.16409 163.399 3.77453C162.661 3.36447 161.769 3.15944 160.723 3.15944C160.19 3.15944 159.647 3.24145 159.093 3.40548C158.54 3.5695 158.037 3.82579 157.586 4.17435C157.135 4.5024 156.766 4.92271 156.479 5.43529C156.213 5.94787 156.079 6.55271 156.079 7.24982C156.079 7.94693 156.213 8.52101 156.479 8.97208C156.746 9.42315 157.094 9.81271 157.525 10.1408C157.976 10.4483 158.478 10.7046 159.032 10.9096C159.606 11.1147 160.2 11.3197 160.816 11.5247C161.574 11.7708 162.333 12.0373 163.091 12.3243C163.87 12.6114 164.568 12.9907 165.183 13.4623C165.798 13.9133 166.3 14.4977 166.69 15.2153C167.079 15.9124 167.274 16.8043 167.274 17.891C167.274 18.9776 167.059 19.9208 166.628 20.7204C166.218 21.4995 165.675 22.1454 164.998 22.6579C164.342 23.1705 163.583 23.5498 162.722 23.7959C161.882 24.0419 161.031 24.1649 160.17 24.1649C159.514 24.1649 158.857 24.0932 158.201 23.9496C157.545 23.8266 156.92 23.6318 156.325 23.3653C155.731 23.0987 155.177 22.7604 154.665 22.3504C154.152 21.9403 153.701 21.4687 153.311 20.9357L155.218 19.521C155.69 20.3001 156.346 20.9562 157.186 21.4893C158.048 22.0018 159.052 22.2581 160.2 22.2581C160.754 22.2581 161.318 22.1761 161.892 22.0121C162.466 21.8276 162.979 21.561 163.43 21.2125C163.901 20.8434 164.281 20.4026 164.568 19.89C164.875 19.3569 165.029 18.7418 165.029 18.0447C165.029 17.2861 164.875 16.6608 164.568 16.1687C164.281 15.6561 163.891 15.2358 163.399 14.9077C162.907 14.5592 162.343 14.2721 161.707 14.0466C161.072 13.8211 160.405 13.5955 159.708 13.37C158.991 13.1445 158.283 12.8882 157.586 12.6011C156.889 12.3141 156.264 11.945 155.71 11.494C155.157 11.0224 154.706 10.4483 154.357 9.7717C154.029 9.0951 153.865 8.26472 153.865 7.28057C153.865 6.23491 154.07 5.33277 154.48 4.57416C154.911 3.81554 155.464 3.1902 156.141 2.69812C156.817 2.20604 157.566 1.84724 158.386 1.6217C159.206 1.39617 160.016 1.2834 160.816 1.2834C162.292 1.2834 163.553 1.54994 164.598 2.08302C165.644 2.5956 166.433 3.2107 166.966 3.92831L165.213 5.34303Z" fill="#0A0A0A"/>
<g clip-path="url(#clip0_20_2)">
<path d="M114.275 12.8872L115.972 13.3011V52.1011L114.912 53.5941L114.962 26.4242L112.035 24.1024L105.877 24.3043L106.685 23.1939L111.934 23.0929L114.761 20.7712L114.275 12.8872Z" fill="#0A0A0A"/>
<path d="M116.609 16.4893L117.145 61.9992L122.286 55.906L119.242 28.9592L121.927 22.7379L116.609 16.4893Z" fill="#0A0A0A"/>
<path d="M117.171 15.9357L124.367 23.9031L127.401 8.63623C127.401 8.63623 124.367 12.1139 122.418 13.3805C120.469 14.6471 117.171 15.9357 117.171 15.9357Z" fill="#0A0A0A"/>
<path d="M102.932 13.0468C102.932 6.2894 108.41 0.812012 115.166 0.812012C120.008 0.812012 124.192 3.62339 126.176 7.70366L122.298 10.5231C121.383 6.43476 117.731 3.37909 113.367 3.37909C108.311 3.37909 104.213 7.47754 104.213 12.533C104.213 16.5345 105.474 21.0023 109.052 22.247H107.006C104.547 20.01 102.932 16.6334 102.932 13.0468Z" fill="#0A0A0A"/>
<path d="M111.774 25.752C112.751 26.2678 113.418 27.0774 114.375 27.9769V29.7222C112.828 28.2161 112.205 27.3126 110.035 25.3765L111.774 25.752Z" fill="#0A0A0A"/>
<path d="M131.923 46.953L130.902 50.8637L126.685 48.0866C126.685 48.0866 126.934 45.7053 126.685 44.3455C126.064 40.9355 123.586 37.572 120.67 34.6627L120.257 32.6528C132.192 42.2822 131.923 46.953 131.923 46.953Z" fill="#0A0A0A"/>
</g>
<defs>
<clipPath id="clip0_20_2">
<rect width="28.991" height="61.187" fill="white" transform="translate(102.932 0.812012)"/>
</clipPath>
</defs>
</svg>
